<svg width="30" height="30" viewBox="0 0 30 30" fill="none" xmlns="http://www.w3.org/2000/svg">
<rect width="30" height="30" rx="10" fill="#4447E2"/>
<path fill-rule="evenodd" clip-rule="evenodd" d="M19.6666 14.3333H15.6666V10.3333C15.6666 9.96466 15.368 9.66666 15 9.66666C14.632 9.66666 14.3333 9.96466 14.3333 10.3333V14.3333H10.3333C9.96529 14.3333 9.66663 14.6313 9.66663 15C9.66663 15.3687 9.96529 15.6667 10.3333 15.6667H14.3333V19.6667C14.3333 20.0353 14.632 20.3333 15 20.3333C15.368 20.3333 15.6666 20.0353 15.6666 19.6667V15.6667H19.6666C20.0346 15.6667 20.3333 15.3687 20.3333 15C20.3333 14.6313 20.0346 14.3333 19.6666 14.3333Z" fill="#231F20"/>
<mask id="mask0_13_27" style="mask-type:alpha" maskUnits="userSpaceOnUse" x="9" y="9" width="12" height="12">
<path fill-rule="evenodd" clip-rule="evenodd" d="M19.6666 14.3333H15.6666V10.3333C15.6666 9.96466 15.368 9.66666 15 9.66666C14.632 9.66666 14.3333 9.96466 14.3333 10.3333V14.3333H10.3333C9.96529 14.3333 9.66663 14.6313 9.66663 15C9.66663 15.3687 9.96529 15.6667 10.3333 15.6667H14.3333V19.6667C14.3333 20.0353 14.632 20.3333 15 20.3333C15.368 20.3333 15.6666 20.0353 15.6666 19.6667V15.6667H19.6666C20.0346 15.6667 20.3333 15.3687 20.3333 15C20.3333 14.6313 20.0346 14.3333 19.6666 14.3333Z" fill="white"/>
</mask>
<g mask="url(#mask0_13_27)">
<rect x="7" y="7" width="16" height="16" fill="white"/>
</g>
</svg>
