<svg width="18" height="18" viewBox="0 0 18 18" fill="none" xmlns="http://www.w3.org/2000/svg">
<path d="M9 7.5C11.982 7.5 15 6.4695 15 4.5C15 2.5305 11.982 1.5 9 1.5C6.018 1.5 3 2.5305 3 4.5C3 6.4695 6.018 7.5 9 7.5Z" fill="white"/>
<path d="M3 7.5C3 9.4695 6.018 10.5 9 10.5C11.982 10.5 15 9.4695 15 7.5V6C15 7.9695 11.982 9 9 9C6.018 9 3 7.9695 3 6V7.5Z" fill="white"/>
<path d="M3 10.5C3 12.4695 6.018 13.5 9 13.5C11.982 13.5 15 12.4695 15 10.5V9C15 10.9695 11.982 12 9 12C6.018 12 3 10.9695 3 9V10.5Z" fill="white"/>
<path d="M3 13.5C3 15.4695 6.018 16.5 9 16.5C11.982 16.5 15 15.4695 15 13.5V12C15 13.9695 11.982 15 9 15C6.018 15 3 13.9695 3 12V13.5Z" fill="white"/>
</svg>
