<svg width="40" height="40" viewBox="0 0 40 40" fill="none" xmlns="http://www.w3.org/2000/svg">
<rect width="40" height="40" rx="12" fill="#0057FF"/>
<rect x="5" y="5" width="30" height="30" rx="15" fill="#0057FF"/>
<path d="M16.5203 13.7168C17.0976 13.7168 17.6304 13.7612 18.1189 13.8944C18.6073 13.9832 19.007 14.1609 19.3622 14.3829C19.7175 14.6049 19.9839 14.9158 20.1615 15.3154C20.3392 15.7151 20.428 16.2035 20.428 16.7364C20.428 17.3581 20.2948 17.8909 19.9839 18.2906C19.7175 18.6902 19.2734 19.0455 18.7406 19.3119C19.4955 19.5339 20.0727 19.9336 20.428 20.4665C20.7832 20.9993 21.0053 21.6654 21.0053 22.4203C21.0053 23.042 20.872 23.5749 20.65 24.0189C20.428 24.463 20.0727 24.8626 19.6731 25.1291C19.2734 25.3955 18.785 25.6175 18.2521 25.7508C17.7192 25.884 17.1864 25.9728 16.6535 25.9728H10.7031V13.7168H16.5203ZM16.165 18.6902C16.6535 18.6902 17.0531 18.557 17.364 18.335C17.6748 18.113 17.808 17.7133 17.808 17.2248C17.808 16.9584 17.7636 16.692 17.6748 16.5144C17.586 16.3367 17.4528 16.2035 17.2752 16.0703C17.0976 15.9815 16.9199 15.8927 16.6979 15.8483C16.4759 15.8039 16.2538 15.8039 15.9874 15.8039H13.4119V18.6902H16.165ZM16.2982 23.9301C16.5647 23.9301 16.8311 23.8857 17.0531 23.8413C17.2752 23.7969 17.4972 23.7081 17.6748 23.5749C17.8524 23.4417 17.9857 23.3084 18.1189 23.0864C18.2077 22.8644 18.2965 22.5979 18.2965 22.2871C18.2965 21.6654 18.1189 21.2214 17.7636 20.9105C17.4084 20.6441 16.9199 20.5109 16.3427 20.5109H13.4119V23.9301H16.2982ZM24.8686 23.8857C25.2238 24.241 25.7567 24.4186 26.4672 24.4186C26.9556 24.4186 27.3997 24.2854 27.7549 24.0633C28.1102 23.7969 28.3322 23.5305 28.421 23.264H30.5969C30.2416 24.3298 29.7088 25.0847 28.9983 25.5731C28.2878 26.0172 27.4441 26.2836 26.4228 26.2836C25.7123 26.2836 25.0906 26.1504 24.5133 25.9284C23.936 25.7063 23.492 25.3955 23.0923 24.9514C22.6927 24.5518 22.3818 24.0633 22.2042 23.4861C21.9822 22.9088 21.8934 22.2871 21.8934 21.5766C21.8934 20.9105 21.9822 20.2888 22.2042 19.7116C22.4262 19.1343 22.7371 18.6458 23.1367 18.2018C23.5364 17.8021 24.0248 17.4469 24.5577 17.2248C25.135 17.0028 25.7123 16.8696 26.4228 16.8696C27.1777 16.8696 27.8437 17.0028 28.421 17.3137C28.9983 17.6245 29.4423 17.9797 29.7976 18.5126C30.1528 19.0011 30.4193 19.5784 30.5969 20.2C30.6857 20.8217 30.7301 21.4434 30.6857 22.1539H24.2469C24.2469 22.8644 24.5133 23.5305 24.8686 23.8857ZM27.6661 19.2231C27.3553 18.9123 26.8668 18.7346 26.2895 18.7346C25.8899 18.7346 25.579 18.8235 25.3126 18.9567C25.0462 19.0899 24.8686 19.2675 24.6909 19.4451C24.5133 19.6228 24.4245 19.8448 24.3801 20.0668C24.3357 20.2888 24.2913 20.4665 24.2913 20.6441H28.2878C28.199 19.978 27.977 19.5339 27.6661 19.2231ZM23.7584 14.5605H28.7318V15.7595H23.7584V14.5605Z" fill="white"/>
</svg>
