<svg width="18" height="18" viewBox="0 0 18 18" fill="none" xmlns="http://www.w3.org/2000/svg">
<path d="M9.00001 7.5C11.982 7.5 15 6.4695 15 4.5C15 2.5305 11.982 1.5 9.00001 1.5C6.01801 1.5 3.00002 2.5305 3.00002 4.5C3.00002 6.4695 6.01801 7.5 9.00001 7.5Z" fill="white"/>
<path d="M3.00002 7.5C3.00002 9.4695 6.01801 10.5 9.00001 10.5C11.982 10.5 15 9.4695 15 7.5V6C15 7.9695 11.982 9 9.00001 9C6.01801 9 3.00002 7.9695 3.00002 6V7.5Z" fill="white"/>
<path d="M3.00002 10.5C3.00002 12.4695 6.01801 13.5 9.00001 13.5C11.982 13.5 15 12.4695 15 10.5V9C15 10.9695 11.982 12 9.00001 12C6.01801 12 3.00002 10.9695 3.00002 9V10.5Z" fill="white"/>
<path d="M3.00002 13.5C3.00002 15.4695 6.01801 16.5 9.00001 16.5C11.982 16.5 15 15.4695 15 13.5V12C15 13.9695 11.982 15 9.00001 15C6.01801 15 3.00002 13.9695 3.00002 12V13.5Z" fill="white"/>
</svg>
