<svg width="40" height="40" viewBox="0 0 40 40" fill="none" xmlns="http://www.w3.org/2000/svg">
<rect width="40" height="40" rx="12" fill="#DEFFE5"/>
<path fill-rule="evenodd" clip-rule="evenodd" d="M24 20C23.448 20 23 19.552 23 19C23 18.448 23.448 18 24 18C24.552 18 25 18.448 25 19C25 19.552 24.552 20 24 20ZM20 20C19.448 20 19 19.552 19 19C19 18.448 19.448 18 20 18C20.552 18 21 18.448 21 19C21 19.552 20.552 20 20 20ZM16 20C15.448 20 15 19.552 15 19C15 18.448 15.448 18 16 18C16.552 18 17 18.448 17 19C17 19.552 16.552 20 16 20ZM27 11H13C11.346 11 10 12.346 10 14V29C10 29.36 10.194 29.693 10.507 29.87C10.66 29.957 10.83 30 11 30C11.178 30 11.356 29.953 11.515 29.857L16.039 27.143C16.195 27.049 16.373 27 16.554 27H27C28.654 27 30 25.654 30 24V14C30 12.346 28.654 11 27 11Z" fill="#50D86A"/>
<mask id="mask0_52_5241" style="mask-type:luminance" maskUnits="userSpaceOnUse" x="10" y="11" width="20" height="19">
<path fill-rule="evenodd" clip-rule="evenodd" d="M24 20C23.448 20 23 19.552 23 19C23 18.448 23.448 18 24 18C24.552 18 25 18.448 25 19C25 19.552 24.552 20 24 20ZM20 20C19.448 20 19 19.552 19 19C19 18.448 19.448 18 20 18C20.552 18 21 18.448 21 19C21 19.552 20.552 20 20 20ZM16 20C15.448 20 15 19.552 15 19C15 18.448 15.448 18 16 18C16.552 18 17 18.448 17 19C17 19.552 16.552 20 16 20ZM27 11H13C11.346 11 10 12.346 10 14V29C10 29.36 10.194 29.693 10.507 29.87C10.66 29.957 10.83 30 11 30C11.178 30 11.356 29.953 11.515 29.857L16.039 27.143C16.195 27.049 16.373 27 16.554 27H27C28.654 27 30 25.654 30 24V14C30 12.346 28.654 11 27 11Z" fill="white"/>
</mask>
<g mask="url(#mask0_52_5241)">
<rect x="8" y="8" width="24" height="24" fill="#50D86A"/>
</g>
</svg>
