<svg width="40" height="40" viewBox="0 0 40 40" fill="none" xmlns="http://www.w3.org/2000/svg">
<rect width="40" height="40" rx="12" fill="#EA4C89"/>
<rect x="5" y="5" width="30" height="30" rx="15" fill="#EA4C89"/>
<path d="M20 29.9883C14.4844 29.9883 10 25.5117 10 20.0039C10 14.4883 14.4844 10.0117 20 10.0117C25.5156 10.0117 30 14.4883 30 19.9961C30 25.5039 25.5156 29.9883 20 29.9883ZM28.4297 21.3633C28.1406 21.2695 25.7891 20.5742 23.1094 20.9961C24.2266 24.0586 24.6797 26.5586 24.7656 27.0742C26.6875 25.7852 28.0547 23.7383 28.4297 21.3633ZM23.3359 27.8633C23.2109 27.1133 22.7109 24.5039 21.5156 21.3945C21.5 21.4023 21.4766 21.4102 21.4609 21.4102C16.6406 23.0898 14.9141 26.4258 14.7578 26.7383C16.2031 27.8633 18.0234 28.5352 20 28.5352C21.1797 28.543 22.3125 28.3008 23.3359 27.8633ZM13.6562 25.7148C13.8516 25.3867 16.1953 21.5117 20.6016 20.082C20.7109 20.043 20.8281 20.0117 20.9375 19.9805C20.7266 19.4961 20.4922 19.0117 20.2422 18.5352C15.9766 19.8086 11.8359 19.7539 11.4609 19.7461C11.4609 19.832 11.4531 19.918 11.4531 20.0039C11.4609 22.1992 12.2891 24.1992 13.6562 25.7148ZM11.6406 18.2617C12.0234 18.2695 15.5391 18.2852 19.5391 17.2227C18.125 14.707 16.5938 12.5977 16.375 12.293C13.9766 13.418 12.1953 15.6211 11.6406 18.2617ZM18 11.7148C18.2344 12.0273 19.7891 14.1367 21.1875 16.707C24.2266 15.5664 25.5078 13.8477 25.6641 13.6289C24.1562 12.293 22.1719 11.4805 20 11.4805C19.3125 11.4805 18.6406 11.5664 18 11.7148ZM26.6094 14.6133C26.4297 14.8555 25 16.6914 21.8438 17.9805C22.0391 18.3867 22.2344 18.8008 22.4141 19.2148C22.4766 19.3633 22.5391 19.5117 22.6016 19.6523C25.4453 19.293 28.2656 19.8711 28.5469 19.9258C28.5234 17.918 27.8047 16.0664 26.6094 14.6133Z" fill="white"/>
</svg>
