<svg width="18" height="18" viewBox="0 0 18 18" fill="none" xmlns="http://www.w3.org/2000/svg">
<g id="Icon/Fill/flash">
<path id="Mask" fill-rule="evenodd" clip-rule="evenodd" d="M8.33346 17.2501C8.24796 17.2501 8.16171 17.2351 8.07696 17.2044C7.75296 17.0866 7.55046 16.7626 7.58796 16.4199L8.16396 11.1001H3.75021C3.47346 11.1001 3.21921 10.9479 3.08871 10.7034C2.95821 10.4589 2.97321 10.1634 3.12696 9.93314L9.04296 1.08314C9.23496 0.795886 9.59796 0.676636 9.92271 0.795886C10.2475 0.913636 10.4492 1.23764 10.4117 1.58039L9.83571 6.90014H14.2502C14.527 6.90014 14.7812 7.05239 14.9117 7.29689C15.0415 7.54139 15.0272 7.83689 14.8735 8.06714L8.95671 16.9171C8.81496 17.1301 8.57796 17.2501 8.33346 17.2501Z" fill="white"/>
<mask id="mask0_48_2055" style="mask-type:luminance" maskUnits="userSpaceOnUse" x="3" y="0" width="12" height="18">
<path id="Mask_2" fill-rule="evenodd" clip-rule="evenodd" d="M8.33346 17.2501C8.24796 17.2501 8.16171 17.2351 8.07696 17.2044C7.75296 17.0866 7.55046 16.7626 7.58796 16.4199L8.16396 11.1001H3.75021C3.47346 11.1001 3.21921 10.9479 3.08871 10.7034C2.95821 10.4589 2.97321 10.1634 3.12696 9.93314L9.04296 1.08314C9.23496 0.795886 9.59796 0.676636 9.92271 0.795886C10.2475 0.913636 10.4492 1.23764 10.4117 1.58039L9.83571 6.90014H14.2502C14.527 6.90014 14.7812 7.05239 14.9117 7.29689C15.0415 7.54139 15.0272 7.83689 14.8735 8.06714L8.95671 16.9171C8.81496 17.1301 8.57796 17.2501 8.33346 17.2501Z" fill="white"/>
</mask>
<g mask="url(#mask0_48_2055)">
<g id="&#240;&#159;&#142;&#168; Color">
<rect id="Base" width="18" height="18" fill="white"/>
</g>
</g>
</g>
</svg>
