<svg width="18" height="18" viewBox="0 0 18 18" fill="none" xmlns="http://www.w3.org/2000/svg">
<path fill-rule="evenodd" clip-rule="evenodd" d="M8.3334 17.2501C8.2479 17.2501 8.16165 17.2351 8.0769 17.2044C7.7529 17.0866 7.5504 16.7626 7.5879 16.4199L8.1639 11.1001H3.75015C3.4734 11.1001 3.21915 10.9479 3.08865 10.7034C2.95815 10.4589 2.97315 10.1634 3.1269 9.93314L9.0429 1.08314C9.2349 0.795886 9.5979 0.676636 9.92265 0.795886C10.2474 0.913636 10.4491 1.23764 10.4116 1.58039L9.83565 6.90014H14.2501C14.5269 6.90014 14.7811 7.05239 14.9116 7.29689C15.0414 7.54139 15.0271 7.83689 14.8734 8.06714L8.95665 16.9171C8.8149 17.1301 8.5779 17.2501 8.3334 17.2501Z" fill="#282B31"/>
<mask id="mask0_48_2279" style="mask-type:luminance" maskUnits="userSpaceOnUse" x="3" y="0" width="12" height="18">
<path fill-rule="evenodd" clip-rule="evenodd" d="M8.3334 17.2501C8.2479 17.2501 8.16165 17.2351 8.0769 17.2044C7.7529 17.0866 7.5504 16.7626 7.5879 16.4199L8.1639 11.1001H3.75015C3.4734 11.1001 3.21915 10.9479 3.08865 10.7034C2.95815 10.4589 2.97315 10.1634 3.1269 9.93314L9.0429 1.08314C9.2349 0.795886 9.5979 0.676636 9.92265 0.795886C10.2474 0.913636 10.4491 1.23764 10.4116 1.58039L9.83565 6.90014H14.2501C14.5269 6.90014 14.7811 7.05239 14.9116 7.29689C15.0414 7.54139 15.0271 7.83689 14.8734 8.06714L8.95665 16.9171C8.8149 17.1301 8.5779 17.2501 8.3334 17.2501Z" fill="white"/>
</mask>
<g mask="url(#mask0_48_2279)">
<rect width="18" height="18" fill="#282B31"/>
</g>
</svg>
