<svg width="40" height="40" viewBox="0 0 40 40" fill="none" xmlns="http://www.w3.org/2000/svg">
<rect width="40" height="40" rx="12" fill="#F0DEFF"/>
<path fill-rule="evenodd" clip-rule="evenodd" d="M17 19C19.206 19 21 17.206 21 15C21 12.794 19.206 11 17 11C14.794 11 13 12.794 13 15C13 17.206 14.794 19 17 19ZM25 21C26.654 21 28 19.654 28 18C28 16.346 26.654 15 25 15C23.346 15 22 16.346 22 18C22 19.654 23.346 21 25 21ZM30 27C30 27.552 29.553 28 29 28H24C24 28.552 23.553 29 23 29H11C10.447 29 10 28.552 10 28C10 24.14 13.141 21 17 21C18.927 21 20.673 21.783 21.94 23.046C22.809 22.374 23.879 22 25 22C27.757 22 30 24.243 30 27Z" fill="#A86CE4"/>
<mask id="mask0_52_4994" style="mask-type:luminance" maskUnits="userSpaceOnUse" x="10" y="11" width="20" height="18">
<path fill-rule="evenodd" clip-rule="evenodd" d="M17 19C19.206 19 21 17.206 21 15C21 12.794 19.206 11 17 11C14.794 11 13 12.794 13 15C13 17.206 14.794 19 17 19ZM25 21C26.654 21 28 19.654 28 18C28 16.346 26.654 15 25 15C23.346 15 22 16.346 22 18C22 19.654 23.346 21 25 21ZM30 27C30 27.552 29.553 28 29 28H24C24 28.552 23.553 29 23 29H11C10.447 29 10 28.552 10 28C10 24.14 13.141 21 17 21C18.927 21 20.673 21.783 21.94 23.046C22.809 22.374 23.879 22 25 22C27.757 22 30 24.243 30 27Z" fill="white"/>
</mask>
<g mask="url(#mask0_52_4994)">
<rect x="8" y="8" width="24" height="24" fill="#A86CE4"/>
</g>
</svg>
