<svg width="24" height="24" viewBox="0 0 24 24" fill="none" xmlns="http://www.w3.org/2000/svg">
<g id="start">
<path id="Mask" fill-rule="evenodd" clip-rule="evenodd" d="M11.5 14.5994L14.309 11.9994L11.5 9.40041V14.5994ZM15.98 13.1785L12.338 16.5485C12.019 16.8445 11.604 16.9995 11.181 16.9995C10.948 16.9995 10.711 16.9515 10.488 16.8545C9.878 16.5885 9.5 16.0195 9.5 15.3695V8.62951C9.5 7.98051 9.878 7.41051 10.488 7.14551C11.114 6.87051 11.841 6.99051 12.339 7.45151L15.98 10.8215C16.311 11.1265 16.5 11.5565 16.5 11.9995C16.5 12.4435 16.311 12.8725 15.98 13.1785ZM12 1.99951C6.486 1.99951 2 6.48651 2 11.9995C2 17.5135 6.486 21.9995 12 21.9995C17.514 21.9995 22 17.5135 22 11.9995C22 6.48651 17.514 1.99951 12 1.99951Z" fill="#5F5F6E"/>
<mask id="mask0_52_5017" style="mask-type:luminance" maskUnits="userSpaceOnUse" x="2" y="1" width="20" height="21">
<path id="Mask_2" fill-rule="evenodd" clip-rule="evenodd" d="M11.5 14.5994L14.309 11.9994L11.5 9.40041V14.5994ZM15.98 13.1785L12.338 16.5485C12.019 16.8445 11.604 16.9995 11.181 16.9995C10.948 16.9995 10.711 16.9515 10.488 16.8545C9.878 16.5885 9.5 16.0195 9.5 15.3695V8.62951C9.5 7.98051 9.878 7.41051 10.488 7.14551C11.114 6.87051 11.841 6.99051 12.339 7.45151L15.98 10.8215C16.311 11.1265 16.5 11.5565 16.5 11.9995C16.5 12.4435 16.311 12.8725 15.98 13.1785ZM12 1.99951C6.486 1.99951 2 6.48651 2 11.9995C2 17.5135 6.486 21.9995 12 21.9995C17.514 21.9995 22 17.5135 22 11.9995C22 6.48651 17.514 1.99951 12 1.99951Z" fill="white"/>
</mask>
<g mask="url(#mask0_52_5017)">
<g id="&#240;&#159;&#142;&#168; Color">
<rect id="Base" width="24" height="24" fill="#5F5F6E"/>
</g>
</g>
</g>
</svg>
