<svg width="40" height="40" viewBox="0 0 40 40" fill="none" xmlns="http://www.w3.org/2000/svg">
<rect width="40" height="40" rx="12" fill="#FFF6DE"/>
<path fill-rule="evenodd" clip-rule="evenodd" d="M20 18.5001C19.173 18.5001 18.5 19.1731 18.5 20.0001C18.5 20.8271 19.173 21.5001 20 21.5001C20.827 21.5001 21.5 20.8271 21.5 20.0001C21.5 19.1731 20.827 18.5001 20 18.5001ZM20 23.5001C18.07 23.5001 16.5 21.9301 16.5 20.0001C16.5 18.0701 18.07 16.5001 20 16.5001C21.93 16.5001 23.5 18.0701 23.5 20.0001C23.5 21.9301 21.93 23.5001 20 23.5001ZM29.868 19.5021C29.229 18.3901 25.706 12.8161 19.729 13.0031C14.202 13.1441 10.986 18.0141 10.132 19.5021C9.956 19.8111 9.956 20.1891 10.132 20.4981C10.762 21.5951 14.162 27.0001 20.025 27.0001C20.106 27.0001 20.188 26.9991 20.271 26.9971C25.798 26.8561 29.014 21.9861 29.868 20.4981C30.044 20.1891 30.044 19.8111 29.868 19.5021Z" fill="#FFA10B"/>
<mask id="mask0_52_5176" style="mask-type:luminance" maskUnits="userSpaceOnUse" x="10" y="12" width="20" height="15">
<path fill-rule="evenodd" clip-rule="evenodd" d="M20 18.5001C19.173 18.5001 18.5 19.1731 18.5 20.0001C18.5 20.8271 19.173 21.5001 20 21.5001C20.827 21.5001 21.5 20.8271 21.5 20.0001C21.5 19.1731 20.827 18.5001 20 18.5001ZM20 23.5001C18.07 23.5001 16.5 21.9301 16.5 20.0001C16.5 18.0701 18.07 16.5001 20 16.5001C21.93 16.5001 23.5 18.0701 23.5 20.0001C23.5 21.9301 21.93 23.5001 20 23.5001ZM29.868 19.5021C29.229 18.3901 25.706 12.8161 19.729 13.0031C14.202 13.1441 10.986 18.0141 10.132 19.5021C9.956 19.8111 9.956 20.1891 10.132 20.4981C10.762 21.5951 14.162 27.0001 20.025 27.0001C20.106 27.0001 20.188 26.9991 20.271 26.9971C25.798 26.8561 29.014 21.9861 29.868 20.4981C30.044 20.1891 30.044 19.8111 29.868 19.5021Z" fill="white"/>
</mask>
<g mask="url(#mask0_52_5176)">
<rect x="8" y="8" width="24" height="24" fill="#FFA10B"/>
</g>
</svg>
