<svg width="16" height="16" viewBox="0 0 16 16" fill="none" xmlns="http://www.w3.org/2000/svg">
<circle cx="8" cy="8" r="8" fill="#1C1C24"/>
<path fill-rule="evenodd" clip-rule="evenodd" d="M9.66668 8C9.43668 8 9.25001 7.81333 9.25001 7.58333C9.25001 7.35333 9.43668 7.16667 9.66668 7.16667C9.89668 7.16667 10.0833 7.35333 10.0833 7.58333C10.0833 7.81333 9.89668 8 9.66668 8ZM8.00001 8C7.77001 8 7.58334 7.81333 7.58334 7.58333C7.58334 7.35333 7.77001 7.16667 8.00001 7.16667C8.23001 7.16667 8.41668 7.35333 8.41668 7.58333C8.41668 7.81333 8.23001 8 8.00001 8ZM6.33334 8C6.10334 8 5.91668 7.81333 5.91668 7.58333C5.91668 7.35333 6.10334 7.16667 6.33334 7.16667C6.56334 7.16667 6.75001 7.35333 6.75001 7.58333C6.75001 7.81333 6.56334 8 6.33334 8ZM10.9167 4.25H5.08334C4.39418 4.25 3.83334 4.81083 3.83334 5.5V11.75C3.83334 11.9 3.91418 12.0388 4.04459 12.1125C4.10834 12.1488 4.17918 12.1667 4.25001 12.1667C4.32418 12.1667 4.39834 12.1471 4.46459 12.1071L6.34959 10.9763C6.41459 10.9371 6.48876 10.9167 6.56418 10.9167H10.9167C11.6058 10.9167 12.1667 10.3558 12.1667 9.66667V5.5C12.1667 4.81083 11.6058 4.25 10.9167 4.25Z" fill="#231F20"/>
<mask id="mask0_52_67" style="mask-type:alpha" maskUnits="userSpaceOnUse" x="3" y="4" width="10" height="9">
<path fill-rule="evenodd" clip-rule="evenodd" d="M9.66668 8C9.43668 8 9.25001 7.81333 9.25001 7.58333C9.25001 7.35333 9.43668 7.16667 9.66668 7.16667C9.89668 7.16667 10.0833 7.35333 10.0833 7.58333C10.0833 7.81333 9.89668 8 9.66668 8ZM8.00001 8C7.77001 8 7.58334 7.81333 7.58334 7.58333C7.58334 7.35333 7.77001 7.16667 8.00001 7.16667C8.23001 7.16667 8.41668 7.35333 8.41668 7.58333C8.41668 7.81333 8.23001 8 8.00001 8ZM6.33334 8C6.10334 8 5.91668 7.81333 5.91668 7.58333C5.91668 7.35333 6.10334 7.16667 6.33334 7.16667C6.56334 7.16667 6.75001 7.35333 6.75001 7.58333C6.75001 7.81333 6.56334 8 6.33334 8ZM10.9167 4.25H5.08334C4.39418 4.25 3.83334 4.81083 3.83334 5.5V11.75C3.83334 11.9 3.91418 12.0388 4.04459 12.1125C4.10834 12.1488 4.17918 12.1667 4.25001 12.1667C4.32418 12.1667 4.39834 12.1471 4.46459 12.1071L6.34959 10.9763C6.41459 10.9371 6.48876 10.9167 6.56418 10.9167H10.9167C11.6058 10.9167 12.1667 10.3558 12.1667 9.66667V5.5C12.1667 4.81083 11.6058 4.25 10.9167 4.25Z" fill="white"/>
</mask>
<g mask="url(#mask0_52_67)">
<rect x="3" y="3" width="10" height="10" fill="#50D86A"/>
</g>
</svg>
