<svg width="16" height="16" viewBox="0 0 16 16" fill="none" xmlns="http://www.w3.org/2000/svg">
<circle cx="8" cy="8" r="8" fill="#1C1C24"/>
<path fill-rule="evenodd" clip-rule="evenodd" d="M6.75001 7.58333C7.66918 7.58333 8.41668 6.83583 8.41668 5.91667C8.41668 4.9975 7.66918 4.25 6.75001 4.25C5.83084 4.25 5.08334 4.9975 5.08334 5.91667C5.08334 6.83583 5.83084 7.58333 6.75001 7.58333ZM10.0833 8.41667C10.7725 8.41667 11.3333 7.85583 11.3333 7.16667C11.3333 6.4775 10.7725 5.91667 10.0833 5.91667C9.39418 5.91667 8.83334 6.4775 8.83334 7.16667C8.83334 7.85583 9.39418 8.41667 10.0833 8.41667ZM12.1667 10.9167C12.1667 11.1467 11.9804 11.3333 11.75 11.3333H9.66668C9.66668 11.5633 9.48043 11.75 9.25001 11.75H4.25001C4.01959 11.75 3.83334 11.5633 3.83334 11.3333C3.83334 9.725 5.14209 8.41667 6.75001 8.41667C7.55293 8.41667 8.28043 8.74292 8.80834 9.26917C9.17043 8.98917 9.61626 8.83333 10.0833 8.83333C11.2321 8.83333 12.1667 9.76792 12.1667 10.9167Z" fill="#231F20"/>
<mask id="mask0_52_120" style="mask-type:alpha" maskUnits="userSpaceOnUse" x="3" y="4" width="10" height="8">
<path fill-rule="evenodd" clip-rule="evenodd" d="M6.75001 7.58333C7.66918 7.58333 8.41668 6.83583 8.41668 5.91667C8.41668 4.9975 7.66918 4.25 6.75001 4.25C5.83084 4.25 5.08334 4.9975 5.08334 5.91667C5.08334 6.83583 5.83084 7.58333 6.75001 7.58333ZM10.0833 8.41667C10.7725 8.41667 11.3333 7.85583 11.3333 7.16667C11.3333 6.4775 10.7725 5.91667 10.0833 5.91667C9.39418 5.91667 8.83334 6.4775 8.83334 7.16667C8.83334 7.85583 9.39418 8.41667 10.0833 8.41667ZM12.1667 10.9167C12.1667 11.1467 11.9804 11.3333 11.75 11.3333H9.66668C9.66668 11.5633 9.48043 11.75 9.25001 11.75H4.25001C4.01959 11.75 3.83334 11.5633 3.83334 11.3333C3.83334 9.725 5.14209 8.41667 6.75001 8.41667C7.55293 8.41667 8.28043 8.74292 8.80834 9.26917C9.17043 8.98917 9.61626 8.83333 10.0833 8.83333C11.2321 8.83333 12.1667 9.76792 12.1667 10.9167Z" fill="white"/>
</mask>
<g mask="url(#mask0_52_120)">
<rect x="3" y="3" width="10" height="10" fill="#A86CE4"/>
</g>
</svg>
