<svg width="16" height="16" viewBox="0 0 16 16" fill="none" xmlns="http://www.w3.org/2000/svg">
<circle cx="8" cy="8" r="8" fill="#1C1C24"/>
<path fill-rule="evenodd" clip-rule="evenodd" d="M7.99997 11.7498V11.7498C7.88914 11.7498 7.78331 11.7061 7.70497 11.6273L4.46872 8.38567C3.62039 7.53567 3.62039 6.15275 4.46872 5.30275C4.87831 4.89275 5.42539 4.6665 6.00831 4.6665C6.59122 4.6665 7.13831 4.89275 7.54789 5.30275L7.99997 5.75567L8.45164 5.30317C8.86164 4.89275 9.40872 4.6665 9.99164 4.6665C10.5746 4.6665 11.1216 4.89275 11.5312 5.30275C12.3796 6.15275 12.3796 7.53567 11.5316 8.38567L8.29497 11.6278C8.21664 11.7061 8.11081 11.7498 7.99997 11.7498" fill="#231F20"/>
<mask id="mask0_52_54" style="mask-type:alpha" maskUnits="userSpaceOnUse" x="3" y="4" width="10" height="8">
<path fill-rule="evenodd" clip-rule="evenodd" d="M7.99997 11.7498V11.7498C7.88914 11.7498 7.78331 11.7061 7.70497 11.6273L4.46872 8.38567C3.62039 7.53567 3.62039 6.15275 4.46872 5.30275C4.87831 4.89275 5.42539 4.6665 6.00831 4.6665C6.59122 4.6665 7.13831 4.89275 7.54789 5.30275L7.99997 5.75567L8.45164 5.30317C8.86164 4.89275 9.40872 4.6665 9.99164 4.6665C10.5746 4.6665 11.1216 4.89275 11.5312 5.30275C12.3796 6.15275 12.3796 7.53567 11.5316 8.38567L8.29497 11.6278C8.21664 11.7061 8.11081 11.7498 7.99997 11.7498" fill="white"/>
</mask>
<g mask="url(#mask0_52_54)">
<rect x="3" y="3" width="10" height="10" fill="#E24444"/>
</g>
</svg>
