<svg width="100" height="100" viewBox="0 0 100 100" fill="none" xmlns="http://www.w3.org/2000/svg">
<path fill-rule="evenodd" clip-rule="evenodd" d="M79.1667 74.3084C79.1667 76.9917 77.3 79.1667 75 79.1667H25L56.525 50.7625C57.55 49.7417 59.4083 49.7459 60.4125 50.7584L79.1667 69.4167V74.3084ZM33.3333 29.1667C36.7833 29.1667 39.5833 31.9667 39.5833 35.4167C39.5833 38.8667 36.7833 41.6667 33.3333 41.6667C29.8833 41.6667 27.0833 38.8667 27.0833 35.4167C27.0833 31.9667 29.8833 29.1667 33.3333 29.1667ZM75 12.5H25C18.1083 12.5 12.5 18.1083 12.5 25V75C12.5 81.8917 18.1083 87.5 25 87.5H75C81.8917 87.5 87.5 81.8917 87.5 75V25C87.5 18.1083 81.8917 12.5 75 12.5Z" fill="#2D2D3A"/>
<mask id="mask0_52_176" style="mask-type:alpha" maskUnits="userSpaceOnUse" x="12" y="12" width="76" height="76">
<path fill-rule="evenodd" clip-rule="evenodd" d="M79.1667 74.3084C79.1667 76.9917 77.3 79.1667 75 79.1667H25L56.525 50.7625C57.55 49.7417 59.4083 49.7459 60.4125 50.7584L79.1667 69.4167V74.3084ZM33.3333 29.1667C36.7833 29.1667 39.5833 31.9667 39.5833 35.4167C39.5833 38.8667 36.7833 41.6667 33.3333 41.6667C29.8833 41.6667 27.0833 38.8667 27.0833 35.4167C27.0833 31.9667 29.8833 29.1667 33.3333 29.1667ZM75 12.5H25C18.1083 12.5 12.5 18.1083 12.5 25V75C12.5 81.8917 18.1083 87.5 25 87.5H75C81.8917 87.5 87.5 81.8917 87.5 75V25C87.5 18.1083 81.8917 12.5 75 12.5Z" fill="white"/>
</mask>
<g mask="url(#mask0_52_176)">
<rect width="100" height="100" fill="#343444"/>
</g>
</svg>
