<svg width="16" height="16" viewBox="0 0 16 16" fill="none" xmlns="http://www.w3.org/2000/svg">
<circle cx="8" cy="8" r="8" fill="#1C1C24"/>
<path fill-rule="evenodd" clip-rule="evenodd" d="M7.99999 7.37486C7.65541 7.37486 7.37499 7.65527 7.37499 7.99986C7.37499 8.34444 7.65541 8.62486 7.99999 8.62486C8.34458 8.62486 8.62499 8.34444 8.62499 7.99986C8.62499 7.65527 8.34458 7.37486 7.99999 7.37486ZM7.99999 9.45819C7.19583 9.45819 6.54166 8.80402 6.54166 7.99986C6.54166 7.19569 7.19583 6.54152 7.99999 6.54152C8.80416 6.54152 9.45833 7.19569 9.45833 7.99986C9.45833 8.80402 8.80416 9.45819 7.99999 9.45819ZM12.1117 7.79235C11.8454 7.32902 10.3775 5.00652 7.88708 5.08444C5.58416 5.14318 4.24416 7.17235 3.88833 7.79235C3.81499 7.9211 3.81499 8.0786 3.88833 8.20735C4.15083 8.66443 5.56749 10.9165 8.01041 10.9165C8.04416 10.9165 8.07833 10.9161 8.11291 10.9153C10.4158 10.8565 11.7558 8.82735 12.1117 8.20735C12.185 8.0786 12.185 7.9211 12.1117 7.79235Z" fill="#231F20"/>
<mask id="mask0_52_107" style="mask-type:alpha" maskUnits="userSpaceOnUse" x="3" y="5" width="10" height="6">
<path fill-rule="evenodd" clip-rule="evenodd" d="M7.99999 7.37486C7.65541 7.37486 7.37499 7.65527 7.37499 7.99986C7.37499 8.34444 7.65541 8.62486 7.99999 8.62486C8.34458 8.62486 8.62499 8.34444 8.62499 7.99986C8.62499 7.65527 8.34458 7.37486 7.99999 7.37486ZM7.99999 9.45819C7.19583 9.45819 6.54166 8.80402 6.54166 7.99986C6.54166 7.19569 7.19583 6.54152 7.99999 6.54152C8.80416 6.54152 9.45833 7.19569 9.45833 7.99986C9.45833 8.80402 8.80416 9.45819 7.99999 9.45819ZM12.1117 7.79235C11.8454 7.32902 10.3775 5.00652 7.88708 5.08444C5.58416 5.14318 4.24416 7.17235 3.88833 7.79235C3.81499 7.9211 3.81499 8.0786 3.88833 8.20735C4.15083 8.66443 5.56749 10.9165 8.01041 10.9165C8.04416 10.9165 8.07833 10.9161 8.11291 10.9153C10.4158 10.8565 11.7558 8.82735 12.1117 8.20735C12.185 8.0786 12.185 7.9211 12.1117 7.79235Z" fill="white"/>
</mask>
<g mask="url(#mask0_52_107)">
<rect x="3" y="3" width="10" height="10" fill="#FFA10B"/>
</g>
</svg>
