<svg width="20" height="20" viewBox="0 0 20 20" fill="none" xmlns="http://www.w3.org/2000/svg">
<circle cx="10" cy="10" r="10" fill="#4447E2"/>
<path fill-rule="evenodd" clip-rule="evenodd" d="M14.0833 9.41658H10.5833V5.91659C10.5833 5.594 10.322 5.33325 10 5.33325C9.67801 5.33325 9.41668 5.594 9.41668 5.91659V9.41658H5.91668C5.59468 9.41658 5.33334 9.67733 5.33334 9.99992C5.33334 10.3225 5.59468 10.5833 5.91668 10.5833H9.41668V14.0833C9.41668 14.4058 9.67801 14.6666 10 14.6666C10.322 14.6666 10.5833 14.4058 10.5833 14.0833V10.5833H14.0833C14.4053 10.5833 14.6667 10.3225 14.6667 9.99992C14.6667 9.67733 14.4053 9.41658 14.0833 9.41658Z" fill="white"/>
<mask id="mask0_30_2817" style="mask-type:alpha" maskUnits="userSpaceOnUse" x="5" y="5" width="10" height="10">
<path fill-rule="evenodd" clip-rule="evenodd" d="M14.0833 9.41658H10.5833V5.91659C10.5833 5.594 10.322 5.33325 10 5.33325C9.67801 5.33325 9.41668 5.594 9.41668 5.91659V9.41658H5.91668C5.59468 9.41658 5.33334 9.67733 5.33334 9.99992C5.33334 10.3225 5.59468 10.5833 5.91668 10.5833H9.41668V14.0833C9.41668 14.4058 9.67801 14.6666 10 14.6666C10.322 14.6666 10.5833 14.4058 10.5833 14.0833V10.5833H14.0833C14.4053 10.5833 14.6667 10.3225 14.6667 9.99992C14.6667 9.67733 14.4053 9.41658 14.0833 9.41658Z" fill="white"/>
</mask>
<g mask="url(#mask0_30_2817)">
<rect x="3" y="3" width="14" height="14" fill="white"/>
</g>
</svg>
