<svg width="50" height="50" viewBox="0 0 50 50" fill="none" xmlns="http://www.w3.org/2000/svg">
<rect width="50" height="50" rx="12" fill="#FFF6DE"/>
<path fill-rule="evenodd" clip-rule="evenodd" d="M25 35C30.5228 35 35 30.5228 35 25C35 19.4772 30.5228 15 25 15C19.4772 15 15 19.4772 15 25C15 30.5228 19.4772 35 25 35ZM24.5349 21.9021C23.915 21.9739 23.4582 22.3459 23.4582 22.9397C23.4582 23.4096 23.7584 23.7489 24.3522 23.9447C24.4109 23.9643 24.4697 23.9838 24.5349 23.9969V21.9021ZM25.5399 28.1343C26.2316 28.0755 26.7211 27.6514 26.7211 27.0118C26.7211 26.4767 26.4013 26.1178 25.6704 25.9155C25.6313 25.909 25.5856 25.8959 25.5399 25.8829V28.1343ZM25.5464 29.5438L25.553 30.3726H24.4958L24.5023 29.5569C22.3423 29.4003 21.5331 28.1277 21.52 26.9205H23.2298C23.2624 27.5208 23.6996 28.0233 24.5349 28.1343V25.7067L23.9737 25.5827C22.7599 25.3151 21.6897 24.5581 21.6897 23.0768C21.6897 21.5106 22.9296 20.6426 24.5088 20.4991V19.6572H25.566V20.5056C27.217 20.6818 28.2808 21.7129 28.3069 23.0702H26.6362C26.6167 22.5482 26.2316 22.0261 25.5399 21.9152V24.1927L26.0946 24.3101C27.4063 24.5907 28.47 25.2564 28.47 26.8356C28.47 28.3888 27.3345 29.3742 25.5464 29.5438Z" fill="#FFA10B"/>
</svg>
