<svg width="40" height="40" viewBox="0 0 40 40" fill="none" xmlns="http://www.w3.org/2000/svg">
<rect width="40" height="40" rx="12" fill="#5181B8"/>
<rect x="5" y="5" width="30" height="30" rx="15" fill="#5181B8"/>
<path fill-rule="evenodd" clip-rule="evenodd" d="M29.5411 15.334C29.6802 14.8705 29.5411 14.5298 28.8794 14.5298H26.6914C26.135 14.5298 25.8787 14.8241 25.7396 15.1487C25.7396 15.1487 24.6269 17.8607 23.0505 19.6224C22.5406 20.1323 22.3088 20.2944 22.0306 20.2944C21.8915 20.2944 21.6902 20.1323 21.6902 19.6688V15.334C21.6902 14.7777 21.5288 14.5298 21.0651 14.5298H17.6268C17.2792 14.5298 17.0701 14.788 17.0701 15.0327C17.0701 15.5602 17.8581 15.6818 17.9394 17.1652V20.3874C17.9394 21.0938 17.8118 21.222 17.5336 21.222C16.7919 21.222 14.9877 18.4976 13.9175 15.3805C13.7077 14.7745 13.4974 14.5298 12.9382 14.5298H10.7502C10.125 14.5298 10 14.8241 10 15.1487C10 15.7282 10.7419 18.6026 13.4539 22.4041C15.2622 25 17.8093 26.4076 20.1274 26.4076C21.5183 26.4076 21.6902 26.095 21.6902 25.5566V23.5944C21.6902 22.9693 21.822 22.8445 22.2622 22.8445C22.587 22.8445 23.1432 23.0068 24.4415 24.2585C25.925 25.7418 26.1694 26.4076 27.004 26.4076H29.192C29.8171 26.4076 30.1297 26.095 29.9493 25.4781C29.7521 24.8633 29.0438 23.9715 28.1039 22.9141C27.594 22.3113 26.8289 21.6622 26.5973 21.3378C26.2727 20.9205 26.3654 20.7351 26.5973 20.3644C26.5973 20.3644 29.2629 16.6092 29.5411 15.3342V15.334Z" fill="white"/>
</svg>
